<svg width="40" height="40" viewBox="0 0 40 40" fill="none" xmlns="http://www.w3.org/2000/svg">
  <!-- Background Circle -->
  <circle cx="20" cy="20" r="20" fill="url(#gradient)"/>
  
  <!-- WiFi/Wave Icon -->
  <path d="M20 12C15.6 12 12 15.6 12 20C12 24.4 15.6 28 20 28C24.4 28 28 24.4 28 20C28 15.6 24.4 12 20 12Z" fill="white" opacity="0.3"/>
  <path d="M20 15C17.2 15 15 17.2 15 20C15 22.8 17.2 25 20 25C22.8 25 25 22.8 25 20C25 17.2 22.8 15 20 15Z" fill="white" opacity="0.5"/>
  <circle cx="20" cy="20" r="3" fill="white"/>
  
  <!-- Wave Lines -->
  <path d="M8 20C8 20 10 18 12 20C14 22 16 20 20 20C24 20 26 22 28 20C30 18 32 20 32 20" stroke="white" stroke-width="2" stroke-linecap="round" opacity="0.6"/>
  
  <defs>
    <linearGradient id="gradient" x1="0" y1="0" x2="40" y2="40" gradientUnits="userSpaceOnUse">
      <stop offset="0%" style="stop-color:#2563eb;stop-opacity:1" />
      <stop offset="100%" style="stop-color:#4f46e5;stop-opacity:1" />
    </linearGradient>
  </defs>
</svg>

